<svg width="1367" height="755" viewBox="0 0 1367 755" fill="none" xmlns="http://www.w3.org/2000/svg">
<g clip-path="url(#clip0)">
<path opacity="0.1" d="M1367 484.6C1367.02 505.111 1364.26 525.525 1358.81 545.263C1353.55 564.291 1345.81 582.507 1335.79 599.418C1335.79 660.692 1295.38 713.649 1236.72 738.844C1212.21 749.266 1185.91 754.587 1159.37 754.498H259.503C211.407 754.498 166.836 741.216 130.283 718.59C119.822 712.145 109.898 704.826 100.613 696.71C59.9856 660.973 34.7965 611.588 34.7965 557.04C11.995 521.104 -0.0954406 479.152 8.87299e-05 436.303C8.87299e-05 346.582 51.8481 269.433 126.125 235.372C135.988 230.851 146.18 227.122 156.608 224.218C160.296 223.19 164.024 222.269 167.792 221.454C177.837 219.264 188.025 217.834 198.275 217.173C201.979 216.937 205.703 216.802 209.447 216.769H211.503C215.637 216.769 219.736 216.916 223.81 217.161L225.149 214.837C226.79 212.032 228.471 209.256 230.191 206.508C233.298 201.502 236.556 196.569 239.966 191.71C243.535 186.581 247.259 181.534 251.139 176.569L252.13 175.345C254.329 172.541 256.575 169.768 258.87 167.029C266.039 158.476 273.607 150.18 281.573 142.14C367.74 55.6966 502.731 0.0488087 654.487 0.0488087C772.57 0.0488087 880.508 33.7432 963.185 89.4155C994.507 71.2738 1029.89 61.7546 1065.88 61.7873C1182.67 61.7873 1277.38 160.082 1277.38 281.333C1277.36 289.005 1276.96 296.671 1276.19 304.302C1304.34 324.699 1327.29 351.728 1343.09 383.107C1358.9 414.487 1367.1 449.297 1367 484.6V484.6Z" fill="#6C63FF"/>
<path opacity="0.2" d="M281.597 142.091V166.98H258.894C266.007 158.435 273.575 150.139 281.597 142.091Z" fill="#6C63FF"/>
<path opacity="0.2" d="M323.264 135.781H292.782V166.98H323.264V135.781Z" fill="#6C63FF"/>
<path opacity="0.2" d="M364.92 135.781H334.437V166.98H364.92V135.781Z" fill="#6C63FF"/>
<path opacity="0.2" d="M406.587 135.781H376.104V166.98H406.587V135.781Z" fill="#6C63FF"/>
<path opacity="0.2" d="M448.242 135.781H417.76V166.98H448.242V135.781Z" fill="#6C63FF"/>
<path opacity="0.2" d="M489.909 135.781H459.427V166.98H489.909V135.781Z" fill="#6C63FF"/>
<path d="M531.577 135.781H501.094V166.98H531.577V135.781Z" fill="#6C63FF"/>
<path opacity="0.2" d="M573.232 135.781H542.749V166.98H573.232V135.781Z" fill="#6C63FF"/>
<path opacity="0.2" d="M614.899 135.781H584.416V166.98H614.899V135.781Z" fill="#6C63FF"/>
<path opacity="0.2" d="M656.554 135.781H626.072V166.98H656.554V135.781Z" fill="#6C63FF"/>
<path d="M698.222 135.781H667.739V166.98H698.222V135.781Z" fill="#6C63FF"/>
<path opacity="0.2" d="M739.889 135.781H709.406V166.98H739.889V135.781Z" fill="#6C63FF"/>
<path opacity="0.2" d="M781.544 135.781H751.061V166.98H781.544V135.781Z" fill="#6C63FF"/>
<path opacity="0.2" d="M823.211 135.781H792.729V166.98H823.211V135.781Z" fill="#6C63FF"/>
<path opacity="0.2" d="M864.878 135.781H834.396V166.98H864.878V135.781Z" fill="#6C63FF"/>
<path opacity="0.2" d="M906.534 135.781H876.051V166.98H906.534V135.781Z" fill="#6C63FF"/>
<path opacity="0.2" d="M948.201 135.781H917.718V166.98H948.201V135.781Z" fill="#6C63FF"/>
<path d="M989.856 135.781H959.374V166.98H989.856V135.781Z" fill="#6C63FF"/>
<path d="M1031.52 135.781H1001.04V166.98H1031.52V135.781Z" fill="#6C63FF"/>
<path opacity="0.2" d="M1073.19 135.781H1042.71V166.98H1073.19V135.781Z" fill="#6C63FF"/>
<path opacity="0.2" d="M1114.85 135.781H1084.36V166.98H1114.85V135.781Z" fill="#6C63FF"/>
<path d="M1156.51 135.781H1126.03V166.98H1156.51V135.781Z" fill="#6C63FF"/>
<path d="M1198.17 135.781H1167.69V166.98H1198.17V135.781Z" fill="#6C63FF"/>
<path d="M239.942 191.697V206.496H230.167C233.274 201.457 236.532 196.524 239.942 191.697Z" fill="#6C63FF"/>
<path opacity="0.2" d="M281.597 175.297H251.115V206.496H281.597V175.297Z" fill="#6C63FF"/>
<path d="M323.264 175.297H292.782V206.496H323.264V175.297Z" fill="#6C63FF"/>
<path opacity="0.2" d="M364.92 175.297H334.437V206.496H364.92V175.297Z" fill="#6C63FF"/>
<path opacity="0.7" d="M406.587 175.297H376.104V206.496H406.587V175.297Z" fill="#6C63FF"/>
<path opacity="0.2" d="M448.242 175.297H417.76V206.496H448.242V175.297Z" fill="#6C63FF"/>
<path opacity="0.4" d="M489.909 175.297H459.427V206.496H489.909V175.297Z" fill="#6C63FF"/>
<path d="M531.577 175.297H501.094V206.496H531.577V175.297Z" fill="#6C63FF"/>
<path opacity="0.4" d="M573.232 175.297H542.749V206.496H573.232V175.297Z" fill="#6C63FF"/>
<path opacity="0.2" d="M614.899 175.297H584.416V206.496H614.899V175.297Z" fill="#6C63FF"/>
<path opacity="0.4" d="M656.554 175.297H626.072V206.496H656.554V175.297Z" fill="#6C63FF"/>
<path d="M698.222 175.297H667.739V206.496H698.222V175.297Z" fill="#6C63FF"/>
<path opacity="0.4" d="M739.889 175.297H709.406V206.496H739.889V175.297Z" fill="#6C63FF"/>
<path opacity="0.4" d="M781.544 175.297H751.061V206.496H781.544V175.297Z" fill="#6C63FF"/>
<path opacity="0.2" d="M823.211 175.297H792.729V206.496H823.211V175.297Z" fill="#6C63FF"/>
<path opacity="0.4" d="M864.878 175.297H834.396V206.496H864.878V175.297Z" fill="#6C63FF"/>
<path opacity="0.4" d="M906.534 175.297H876.051V206.496H906.534V175.297Z" fill="#6C63FF"/>
<path opacity="0.2" d="M948.201 175.297H917.718V206.496H948.201V175.297Z" fill="#6C63FF"/>
<path opacity="0.2" d="M989.856 175.297H959.374V206.496H989.856V175.297Z" fill="#6C63FF"/>
<path opacity="0.4" d="M1031.52 175.297H1001.04V206.496H1031.52V175.297Z" fill="#6C63FF"/>
<path opacity="0.2" d="M1073.19 175.297H1042.71V206.496H1073.19V175.297Z" fill="#6C63FF"/>
<path d="M1114.85 175.297H1084.36V206.496H1114.85V175.297Z" fill="#6C63FF"/>
<path d="M1156.51 175.297H1126.03V206.496H1156.51V175.297Z" fill="#6C63FF"/>
<path d="M1198.17 175.297H1167.69V206.496H1198.17V175.297Z" fill="#6C63FF"/>
<path opacity="0.2" d="M156.608 224.218V246.024H126.125V235.372C135.988 230.851 146.18 227.122 156.608 224.218V224.218Z" fill="#6C63FF"/>
<path opacity="0.2" d="M198.275 217.173V246.024H167.792V221.454L198.275 217.173Z" fill="#6C63FF"/>
<path d="M239.93 214.825H209.447V246.024H239.93V214.825Z" fill="#6C63FF"/>
<path opacity="0.7" d="M281.597 214.825H251.115V246.024H281.597V214.825Z" fill="#6C63FF"/>
<path d="M323.264 214.825H292.782V246.024H323.264V214.825Z" fill="#6C63FF"/>
<path opacity="0.7" d="M364.92 214.825H334.437V246.024H364.92V214.825Z" fill="#6C63FF"/>
<path opacity="0.7" d="M406.587 214.825H376.104V246.024H406.587V214.825Z" fill="#6C63FF"/>
<path opacity="0.2" d="M448.242 214.825H417.76V246.024H448.242V214.825Z" fill="#6C63FF"/>
<path opacity="0.4" d="M489.909 214.825H459.427V246.024H489.909V214.825Z" fill="#6C63FF"/>
<path opacity="0.4" d="M531.577 214.825H501.094V246.024H531.577V214.825Z" fill="#6C63FF"/>
<path d="M573.232 214.825H542.749V246.024H573.232V214.825Z" fill="#6C63FF"/>
<path opacity="0.2" d="M614.899 214.825H584.416V246.024H614.899V214.825Z" fill="#6C63FF"/>
<path opacity="0.4" d="M656.554 214.825H626.072V246.024H656.554V214.825Z" fill="#6C63FF"/>
<path d="M698.222 214.825H667.739V246.024H698.222V214.825Z" fill="#6C63FF"/>
<path opacity="0.2" d="M739.889 214.825H709.406V246.024H739.889V214.825Z" fill="#6C63FF"/>
<path opacity="0.4" d="M781.544 214.825H751.061V246.024H781.544V214.825Z" fill="#6C63FF"/>
<path opacity="0.2" d="M823.211 214.825H792.729V246.024H823.211V214.825Z" fill="#6C63FF"/>
<path d="M864.878 214.825H834.396V246.024H864.878V214.825Z" fill="#6C63FF"/>
<path opacity="0.2" d="M906.534 214.825H876.051V246.024H906.534V214.825Z" fill="#6C63FF"/>
<path opacity="0.7" d="M948.201 214.825H917.718V246.024H948.201V214.825Z" fill="#6C63FF"/>
<path opacity="0.7" d="M989.856 214.825H959.374V246.024H989.856V214.825Z" fill="#6C63FF"/>
<path opacity="0.4" d="M1031.52 214.825H1001.04V246.024H1031.52V214.825Z" fill="#6C63FF"/>
<path opacity="0.2" d="M1073.19 214.825H1042.71V246.024H1073.19V214.825Z" fill="#6C63FF"/>
<path d="M1114.85 214.825H1084.36V246.024H1114.85V214.825Z" fill="#6C63FF"/>
<path d="M1156.51 214.825H1126.03V246.024H1156.51V214.825Z" fill="#6C63FF"/>
<path d="M1198.17 214.825H1167.69V246.024H1198.17V214.825Z" fill="#6C63FF"/>
<path opacity="0.2" d="M156.608 254.341H126.125V285.54H156.608V254.341Z" fill="#6C63FF"/>
<path opacity="0.2" d="M198.275 254.341H167.792V285.54H198.275V254.341Z" fill="#6C63FF"/>
<path opacity="0.2" d="M239.93 254.341H209.447V285.54H239.93V254.341Z" fill="#6C63FF"/>
<path opacity="0.2" d="M281.597 254.341H251.115V285.54H281.597V254.341Z" fill="#6C63FF"/>
<path d="M323.264 254.341H292.782V285.54H323.264V254.341Z" fill="#6C63FF"/>
<path opacity="0.7" d="M364.92 254.341H334.437V285.54H364.92V254.341Z" fill="#6C63FF"/>
<path opacity="0.7" d="M406.587 254.341H376.104V285.54H406.587V254.341Z" fill="#6C63FF"/>
<path opacity="0.2" d="M448.242 254.341H417.76V285.54H448.242V254.341Z" fill="#6C63FF"/>
<path opacity="0.2" d="M489.909 254.341H459.427V285.54H489.909V254.341Z" fill="#6C63FF"/>
<path opacity="0.4" d="M531.577 254.341H501.094V285.54H531.577V254.341Z" fill="#6C63FF"/>
<path opacity="0.4" d="M573.232 254.341H542.749V285.54H573.232V254.341Z" fill="#6C63FF"/>
<path d="M614.899 254.341H584.416V285.54H614.899V254.341Z" fill="#6C63FF"/>
<path opacity="0.2" d="M656.554 254.341H626.072V285.54H656.554V254.341Z" fill="#6C63FF"/>
<path opacity="0.4" d="M698.222 254.341H667.739V285.54H698.222V254.341Z" fill="#6C63FF"/>
<path opacity="0.4" d="M739.889 254.341H709.406V285.54H739.889V254.341Z" fill="#6C63FF"/>
<path opacity="0.4" d="M781.544 254.341H751.061V285.54H781.544V254.341Z" fill="#6C63FF"/>
<path opacity="0.4" d="M823.211 254.341H792.729V285.54H823.211V254.341Z" fill="#6C63FF"/>
<path opacity="0.2" d="M864.878 254.341H834.396V285.54H864.878V254.341Z" fill="#6C63FF"/>
<path opacity="0.2" d="M906.534 254.341H876.051V285.54H906.534V254.341Z" fill="#6C63FF"/>
<path opacity="0.2" d="M948.201 254.341H917.718V285.54H948.201V254.341Z" fill="#6C63FF"/>
<path opacity="0.2" d="M989.856 254.341H959.374V285.54H989.856V254.341Z" fill="#6C63FF"/>
<path opacity="0.7" d="M1031.52 254.341H1001.04V285.54H1031.52V254.341Z" fill="#6C63FF"/>
<path opacity="0.7" d="M1073.19 254.341H1042.71V285.54H1073.19V254.341Z" fill="#6C63FF"/>
<path opacity="0.4" d="M1114.85 254.341H1084.36V285.54H1114.85V254.341Z" fill="#6C63FF"/>
<path opacity="0.2" d="M1156.51 254.341H1126.03V285.54H1156.51V254.341Z" fill="#6C63FF"/>
<path d="M1198.17 254.341H1167.69V285.54H1198.17V254.341Z" fill="#6C63FF"/>
<path opacity="0.2" d="M156.608 293.869H126.125V325.069H156.608V293.869Z" fill="#6C63FF"/>
<path opacity="0.2" d="M198.275 293.869H167.792V325.069H198.275V293.869Z" fill="#6C63FF"/>
<path opacity="0.4" d="M239.93 293.869H209.447V325.069H239.93V293.869Z" fill="#6C63FF"/>
<path opacity="0.2" d="M281.597 293.869H251.115V325.069H281.597V293.869Z" fill="#6C63FF"/>
<path opacity="0.2" d="M323.264 293.869H292.782V325.069H323.264V293.869Z" fill="#6C63FF"/>
<path opacity="0.7" d="M364.92 293.869H334.437V325.069H364.92V293.869Z" fill="#6C63FF"/>
<path opacity="0.7" d="M406.587 293.869H376.104V325.069H406.587V293.869Z" fill="#6C63FF"/>
<path opacity="0.2" d="M448.242 293.869H417.76V325.069H448.242V293.869Z" fill="#6C63FF"/>
<path opacity="0.2" d="M489.909 293.869H459.427V325.069H489.909V293.869Z" fill="#6C63FF"/>
<path opacity="0.4" d="M531.577 293.869H501.094V325.069H531.577V293.869Z" fill="#6C63FF"/>
<path d="M573.232 293.869H542.749V325.069H573.232V293.869Z" fill="#6C63FF"/>
<path opacity="0.2" d="M614.899 293.869H584.416V325.069H614.899V293.869Z" fill="#6C63FF"/>
<path d="M656.554 293.869H626.072V325.069H656.554V293.869Z" fill="#6C63FF"/>
<path d="M698.222 293.869H667.739V325.069H698.222V293.869Z" fill="#6C63FF"/>
<path d="M739.889 293.869H709.406V325.069H739.889V293.869Z" fill="#6C63FF"/>
<path opacity="0.2" d="M781.544 293.869H751.061V325.069H781.544V293.869Z" fill="#6C63FF"/>
<path d="M823.211 293.869H792.729V325.069H823.211V293.869Z" fill="#6C63FF"/>
<path opacity="0.2" d="M864.878 293.869H834.396V325.069H864.878V293.869Z" fill="#6C63FF"/>
<path opacity="0.2" d="M906.534 293.869H876.051V325.069H906.534V293.869Z" fill="#6C63FF"/>
<path opacity="0.2" d="M948.201 293.869H917.718V325.069H948.201V293.869Z" fill="#6C63FF"/>
<path opacity="0.2" d="M989.856 293.869H959.374V325.069H989.856V293.869Z" fill="#6C63FF"/>
<path opacity="0.2" d="M1031.52 293.869H1001.04V325.069H1031.52V293.869Z" fill="#6C63FF"/>
<path opacity="0.7" d="M1073.19 293.869H1042.71V325.069H1073.19V293.869Z" fill="#6C63FF"/>
<path opacity="0.2" d="M1114.85 293.869H1084.36V325.069H1114.85V293.869Z" fill="#6C63FF"/>
<path opacity="0.2" d="M1156.51 293.869H1126.03V325.069H1156.51V293.869Z" fill="#6C63FF"/>
<path d="M1198.17 293.869H1167.69V325.069H1198.17V293.869Z" fill="#6C63FF"/>
<path opacity="0.2" d="M156.608 333.385H126.125V364.585H156.608V333.385Z" fill="#6C63FF"/>
<path opacity="0.2" d="M198.275 333.385H167.792V364.585H198.275V333.385Z" fill="#6C63FF"/>
<path opacity="0.2" d="M239.93 333.385H209.447V364.585H239.93V333.385Z" fill="#6C63FF"/>
<path opacity="0.4" d="M281.597 333.385H251.115V364.585H281.597V333.385Z" fill="#6C63FF"/>
<path opacity="0.2" d="M323.264 333.385H292.782V364.585H323.264V333.385Z" fill="#6C63FF"/>
<path opacity="0.2" d="M364.92 333.385H334.437V364.585H364.92V333.385Z" fill="#6C63FF"/>
<path opacity="0.7" d="M406.587 333.385H376.104V364.585H406.587V333.385Z" fill="#6C63FF"/>
<path opacity="0.2" d="M448.242 333.385H417.76V364.585H448.242V333.385Z" fill="#6C63FF"/>
<path opacity="0.2" d="M489.909 333.385H459.427V364.585H489.909V333.385Z" fill="#6C63FF"/>
<path opacity="0.2" d="M531.577 333.385H501.094V364.585H531.577V333.385Z" fill="#6C63FF"/>
<path d="M573.232 333.385H542.749V364.585H573.232V333.385Z" fill="#6C63FF"/>
<path opacity="0.2" d="M614.899 333.385H584.416V364.585H614.899V333.385Z" fill="#6C63FF"/>
<path d="M656.554 333.385H626.072V364.585H656.554V333.385Z" fill="#6C63FF"/>
<path d="M698.222 333.385H667.739V364.585H698.222V333.385Z" fill="#6C63FF"/>
<path opacity="0.2" d="M739.889 333.385H709.406V364.585H739.889V333.385Z" fill="#6C63FF"/>
<path opacity="0.2" d="M781.544 333.385H751.061V364.585H781.544V333.385Z" fill="#6C63FF"/>
<path opacity="0.2" d="M823.211 333.385H792.729V364.585H823.211V333.385Z" fill="#6C63FF"/>
<path opacity="0.2" d="M864.878 333.385H834.396V364.585H864.878V333.385Z" fill="#6C63FF"/>
<path opacity="0.2" d="M906.534 333.385H876.051V364.585H906.534V333.385Z" fill="#6C63FF"/>
<path opacity="0.2" d="M948.201 333.385H917.718V364.585H948.201V333.385Z" fill="#6C63FF"/>
<path opacity="0.2" d="M989.856 333.385H959.374V364.585H989.856V333.385Z" fill="#6C63FF"/>
<path opacity="0.2" d="M1031.52 333.385H1001.04V364.585H1031.52V333.385Z" fill="#6C63FF"/>
<path opacity="0.2" d="M1073.19 333.385H1042.71V364.585H1073.19V333.385Z" fill="#6C63FF"/>
<path opacity="0.2" d="M1114.85 333.385H1084.36V364.585H1114.85V333.385Z" fill="#6C63FF"/>
<path opacity="0.4" d="M1156.51 333.385H1126.03V364.585H1156.51V333.385Z" fill="#6C63FF"/>
<path d="M1198.17 333.385H1167.69V364.585H1198.17V333.385Z" fill="#6C63FF"/>
<path opacity="0.7" d="M156.608 372.914H126.125V404.113H156.608V372.914Z" fill="#6C63FF"/>
<path opacity="0.7" d="M198.275 372.914H167.792V404.113H198.275V372.914Z" fill="#6C63FF"/>
<path opacity="0.7" d="M239.93 372.914H209.447V404.113H239.93V372.914Z" fill="#6C63FF"/>
<path opacity="0.7" d="M281.597 372.914H251.115V404.113H281.597V372.914Z" fill="#6C63FF"/>
<path opacity="0.7" d="M323.264 372.914H292.782V404.113H323.264V372.914Z" fill="#6C63FF"/>
<path opacity="0.2" d="M364.92 372.914H334.437V404.113H364.92V372.914Z" fill="#6C63FF"/>
<path opacity="0.2" d="M406.587 372.914H376.104V404.113H406.587V372.914Z" fill="#6C63FF"/>
<path opacity="0.2" d="M448.242 372.914H417.76V404.113H448.242V372.914Z" fill="#6C63FF"/>
<path opacity="0.2" d="M489.909 372.914H459.427V404.113H489.909V372.914Z" fill="#6C63FF"/>
<path opacity="0.2" d="M531.577 372.914H501.094V404.113H531.577V372.914Z" fill="#6C63FF"/>
<path opacity="0.2" d="M573.232 372.914H542.749V404.113H573.232V372.914Z" fill="#6C63FF"/>
<path d="M614.899 372.914H584.416V404.113H614.899V372.914Z" fill="#6C63FF"/>
<path opacity="0.2" d="M656.554 372.914H626.072V404.113H656.554V372.914Z" fill="#6C63FF"/>
<path opacity="0.2" d="M698.222 372.914H667.739V404.113H698.222V372.914Z" fill="#6C63FF"/>
<path opacity="0.2" d="M739.889 372.914H709.406V404.113H739.889V372.914Z" fill="#6C63FF"/>
<path d="M781.544 372.914H751.061V404.113H781.544V372.914Z" fill="#6C63FF"/>
<path opacity="0.2" d="M823.211 372.914H792.729V404.113H823.211V372.914Z" fill="#6C63FF"/>
<path opacity="0.2" d="M864.878 372.914H834.396V404.113H864.878V372.914Z" fill="#6C63FF"/>
<path opacity="0.2" d="M906.534 372.914H876.051V404.113H906.534V372.914Z" fill="#6C63FF"/>
<path opacity="0.2" d="M948.201 372.914H917.718V404.113H948.201V372.914Z" fill="#6C63FF"/>
<path opacity="0.2" d="M989.856 372.914H959.374V404.113H989.856V372.914Z" fill="#6C63FF"/>
<path opacity="0.2" d="M1031.52 372.914H1001.04V404.113H1031.52V372.914Z" fill="#6C63FF"/>
<path opacity="0.2" d="M1073.19 372.914H1042.71V404.113H1073.19V372.914Z" fill="#6C63FF"/>
<path opacity="0.2" d="M1114.85 372.914H1084.36V404.113H1114.85V372.914Z" fill="#6C63FF"/>
<path opacity="0.2" d="M1156.51 372.914H1126.03V404.113H1156.51V372.914Z" fill="#6C63FF"/>
<path d="M1198.17 372.914H1167.69V404.113H1198.17V372.914Z" fill="#6C63FF"/>
<path d="M877.7 487.695C900.712 487.695 919.367 468.601 919.367 445.048C919.367 421.495 900.712 402.401 877.7 402.401C854.688 402.401 836.033 421.495 836.033 445.048C836.033 468.601 854.688 487.695 877.7 487.695Z" fill="#767D9F"/>
<path d="M875.537 390.794C879.696 409.368 883.225 428.08 886.124 446.931C886.997 452.533 887.773 458.44 885.79 463.736C884.129 468.151 880.747 471.6 878.094 475.465C875.442 479.329 873.434 484.283 875.047 488.71C876.66 493.137 881.368 495.559 885.861 496.806C898.719 500.353 912.425 497.773 925.222 493.932C931.017 492.406 936.572 490.05 941.724 486.937C947.149 483.414 951.595 478.522 955.681 473.483C974.334 450.331 986.546 422.544 998.041 394.928C990.655 395.616 983.215 394.495 976.335 391.659C969.456 388.822 963.334 384.35 958.477 378.613C953.769 372.95 950.316 365.062 952.969 358.139C945.19 362.506 935.953 362.799 927.576 365.783C922.382 367.814 917.382 370.332 912.64 373.305C906.92 376.689 901.232 380.138 895.576 383.652C889.112 387.639 883.053 391.186 875.537 390.794Z" fill="#AE6E79"/>
<path d="M962.684 422.813C955.382 437.355 945.883 451.334 932.32 459.993C918.758 468.652 900.499 471.001 886.913 462.439C880.221 458.257 875.155 451.897 869.312 446.54C863.468 441.183 856.167 436.597 848.317 437.294C839.665 438.064 832.89 444.974 827.095 451.591C818.3 461.644 809.804 472.126 803.579 484.026C791.629 506.896 788.797 533.632 789.323 559.56C789.849 585.488 793.517 611.282 793.601 637.21C793.72 669.107 788.439 700.746 783.097 732.166C832.209 725.978 881.38 739.504 930.6 744.629C962.098 747.943 993.835 747.87 1025.5 747.784C1031.07 747.784 1037 747.637 1041.63 744.482C1044.47 742.366 1046.76 739.58 1048.31 736.361C1052.69 728.106 1054.44 718.688 1055.66 709.381C1058.76 685.874 1058.85 662.074 1058.94 638.348C1059.15 580.865 1059.35 523.175 1052.22 466.145C1050.46 452.117 1048.22 438.015 1042.96 424.892C1037.7 411.769 1029.12 399.698 1017.12 392.666C1009.42 388.14 991.553 380.264 982.472 384.826C972.279 389.914 967.571 413.078 962.684 422.813Z" fill="#767D9F"/>
<path d="M966.316 585.134C964.464 549.666 956.924 511.813 972.972 480.332C976.915 472.603 962.767 462.953 967.141 455.468C972.478 446.342 976.525 436.489 979.162 426.201C980.07 422.666 980.799 418.924 979.938 415.377C978.349 408.907 972.1 405.055 966.794 401.117C960.939 396.763 957.928 383.493 956.04 376.314C954.152 369.134 971.06 377.781 977.859 375.225C987.299 371.691 999.296 373.916 1008.71 377.5C1013.97 379.481 1019.68 379.653 1025.29 379.799C1036.17 380.093 1047.09 380.374 1057.9 379.004C1062.75 378.381 1067.61 377.439 1072.49 377.72C1084.92 378.442 1095.74 387.15 1103.1 397.448C1110.46 407.745 1115.14 419.743 1121.18 430.897C1126.21 440.192 1132.21 448.974 1136.5 458.648C1140.3 467.209 1142.7 476.406 1145.08 485.554L1151.21 509.024C1152.28 512.382 1152.79 515.901 1152.71 519.432C1152.4 523.187 1150.78 526.685 1149.13 530.024C1142.89 542.399 1135.42 554.077 1126.82 564.868C1113.93 581.049 1098.27 595.639 1090.61 615.012C1087.63 622.558 1085.96 630.581 1084.45 638.58C1078.33 670.571 1073.98 702.89 1071.42 735.383C1057.46 728.77 1042.82 723.761 1027.78 720.449C1020.29 718.807 1012.71 717.583 1005.08 716.78C998.4 716.071 989.784 717.416 983.427 715.557C972.793 712.463 971.622 694.056 970.008 684.419C967.427 669.07 966.913 653.452 966.818 637.944C966.698 620.308 967.236 602.708 966.316 585.134Z" fill="#4C4981"/>
<path d="M732.767 518.809C737.798 548.161 743.342 577.6 754.276 605.179C754.001 605.448 753.726 605.693 753.451 605.937C752.483 606.781 751.48 607.576 750.428 608.383C747.978 610.145 745.29 611.637 743.258 613.936C742.489 614.816 741.882 615.831 741.466 616.932C741.091 617.792 740.897 618.724 740.897 619.666C740.897 620.608 741.091 621.539 741.466 622.399C735.766 624.98 729.146 624.185 722.753 623.94C717.245 623.732 711.903 623.94 707.482 627.035C701.34 631.364 699.488 639.681 698.496 647.239C698.13 649.995 697.815 652.755 697.552 655.519C697.297 658.087 697.09 660.664 696.931 663.248C696.389 671.799 696.314 680.373 696.704 688.932C696.768 690.497 696.851 692.063 696.955 693.628C677.43 693.151 659.637 682.731 642.801 672.605C638.953 670.293 634.986 667.859 632.488 664.043C630.187 660.296 629.213 655.853 629.728 651.458C629.728 650.835 629.836 650.235 629.919 649.599C630.454 645.97 631.372 642.411 632.656 638.984C637.923 624.385 645.688 610.864 655.586 599.052C659.864 593.939 664.68 588.937 666.675 582.516C667.548 579.716 667.87 576.744 668.754 573.955C672.722 561.872 687.037 556.16 691.936 544.431C693.131 541.63 693.681 538.561 695.162 535.87C696.496 533.634 698.217 531.665 700.241 530.061C701.113 529.315 702.021 528.593 702.918 527.871C711.314 521.137 719.404 514.023 727.187 506.53C728.636 505.135 730.07 503.725 731.488 502.298C731.299 507.833 731.728 513.373 732.767 518.809V518.809Z" fill="#4C4981"/>
<path d="M853.18 431.998C851.459 433.857 849.595 435.606 847.767 437.343L847.277 437.795L845.341 439.63C841.828 442.734 838.787 446.357 836.32 450.38L836.116 450.723C830.022 461.889 832.281 475.636 833.978 488.319C836.082 504.123 837.029 520.067 836.809 536.017C836.499 558.031 833.966 579.899 833.918 601.889C833.918 606.879 834.025 611.857 834.24 616.847C834.587 624.955 835.184 633.052 835.901 641.148C836.678 650.027 837.61 658.894 838.482 667.761C839.175 674.623 839.833 681.471 840.382 688.32C840.657 691.867 840.92 695.402 841.135 698.949C841.386 703.107 841.589 707.277 841.709 711.436C841.792 714.077 841.84 716.707 841.84 719.349C841.84 720.853 841.84 722.345 841.84 723.837C841.84 726.699 841.764 729.553 841.613 732.398C841.454 736.059 841.211 739.728 840.884 743.406C840.514 747.405 839.857 751.771 837.108 754.584C836.941 754.755 836.762 754.914 836.582 755.073L832.711 754.584C806.022 751.314 779.078 750.822 752.292 753.116C752.878 748.983 753.415 744.861 753.941 740.715C754.18 738.758 754.419 736.789 754.646 734.82C754.909 732.57 755.16 730.319 755.399 728.069C755.674 725.623 755.925 723.177 756.164 720.731C756.785 714.428 757.331 708.121 757.801 701.81C758.494 692.605 759.02 683.383 759.378 674.146C759.553 669.734 759.689 665.319 759.784 660.9C759.92 655.421 759.983 649.938 759.976 644.45C759.976 639.118 759.932 633.777 759.844 628.429C759.844 626.668 759.772 624.906 759.629 623.157C759.526 621.583 759.314 620.017 758.996 618.473C758.108 614.913 756.909 611.442 755.411 608.102C755.148 607.466 754.897 606.879 754.646 606.206C754.503 605.876 754.371 605.534 754.24 605.203C761.123 598.929 766.022 590.527 770.73 582.259C778.365 568.941 786.18 555.035 787.459 539.649C788.737 524.263 781.269 506.982 766.906 502.286C762.999 501.063 758.864 500.72 754.837 499.999C751.037 499.314 743.115 497.76 738.718 494.972C736.328 497.483 733.938 499.95 731.548 502.371C731.693 498.676 732.576 495.051 734.141 491.719L735.838 491.804C735.7 491.413 735.635 490.998 735.647 490.581C735.647 489.273 736.531 487.793 738.419 486.154C744.047 481.262 752.902 480.173 756.45 473.557C757.932 470.805 758.183 467.527 759.378 464.641C762.807 456.41 772.654 453.377 778.581 446.797C784.507 440.217 785.989 430.897 790.781 423.559C794.36 418.201 799.325 413.966 805.12 411.329C805.598 411.097 806.088 410.864 806.578 410.656C816.496 406.315 828.278 405.324 838.554 405.348C842.545 405.348 852.893 405.471 857.96 407.538C858.781 407.838 859.534 408.309 860.17 408.92C865.571 414.937 857.171 427.644 853.18 431.998Z" fill="#4C4981"/>
<path d="M734.547 490.862C743.778 488.018 753.469 487.08 763.057 488.103C772.645 489.125 781.939 492.088 790.399 496.819C799.002 501.711 806.721 508.535 811.453 517.341C818.563 530.55 818.252 546.474 817.75 561.554C817.499 569.1 817.177 576.915 813.927 583.69C810.163 591.53 803.065 596.911 795.823 601.314C791.287 604.276 786.317 606.477 781.102 607.833C773.072 609.619 764.731 608.102 756.642 606.61C747.847 604.947 738.407 602.941 732.301 596.239C728.716 592.349 726.757 587.298 724.821 582.357C722.041 575.223 719.252 568.097 716.456 560.979C711.617 548.614 709.98 538.328 716.373 526.281C719.276 520.79 722.825 515.653 725.693 510.125C727.127 507.312 732.265 491.584 734.547 490.862Z" fill="#4C4981"/>
<path d="M1236.75 702.287V738.856C1212.24 749.278 1185.95 754.6 1159.4 754.511H837.144C836.977 754.682 836.798 754.841 836.618 755L832.747 754.511H259.503C211.407 754.511 166.836 741.229 130.283 718.603V662.771L405.977 630.202H406.193L566.743 644.12L608.291 647.789L629.872 649.661L674.538 653.538L697.516 655.531L730.975 658.442L735.683 658.845L759.796 660.937L792.513 663.689L838.518 667.676L915.209 674.341L969.16 679.025L1057.75 686.718L1074.6 688.174L1076.42 688.333L1077.99 688.467L1100.24 690.4L1124.67 692.528L1127.5 692.772L1236.75 702.287Z" fill="#504F60"/>
<path d="M912.927 700.942L567.424 640.586L554.029 709.919L712.405 729.329L761.17 735.578L895.313 708.537L912.927 700.942Z" fill="#9C9CA1"/>
<path d="M734.081 732.105L907.179 698.802C908.045 698.632 908.937 698.661 909.791 698.886C910.645 699.11 911.439 699.526 912.118 700.102C912.796 700.679 913.342 701.402 913.715 702.219C914.088 703.037 914.28 703.929 914.277 704.831V704.831C914.281 706.263 913.794 707.65 912.9 708.752C912.007 709.854 910.765 710.6 909.39 710.861L740.343 743.259L734.081 732.105Z" fill="#9C9CA1"/>
<path d="M809.171 627.377C814.56 626.863 820.021 625.995 824.872 623.549C830.847 620.504 835.495 615.257 841.028 611.392C853.192 602.831 869.467 601.681 883.412 606.598C897.357 611.514 908.995 622.045 917.145 634.617C922.558 642.995 926.62 653.684 922.797 662.93C921.485 665.757 919.831 668.403 917.874 670.807L907.908 684.138C906.015 686.94 903.737 689.449 901.145 691.586C897.416 694.362 892.78 695.5 888.215 696.185C876.087 697.995 863.743 696.967 851.519 697.799C830.524 699.23 810.019 706.152 788.977 705.92C776.884 705.785 764.946 703.29 753.129 700.795L700.827 689.788C691.721 687.88 681.433 685.092 677.143 676.641C675.219 672.837 674.861 668.434 674.634 664.153C674.012 652.363 674.634 639.253 682.616 630.753C690.12 622.778 701.986 620.259 710.948 614.364C721.917 607.136 725.538 609.472 737.105 614.902C759.671 625.362 784.499 629.66 809.171 627.377V627.377Z" fill="#AE6E79"/>
<path opacity="0.05" d="M809.171 627.377C814.56 626.863 820.021 625.995 824.872 623.549C830.847 620.504 835.495 615.257 841.028 611.392C853.192 602.831 869.467 601.681 883.412 606.598C897.357 611.514 908.995 622.045 917.145 634.617C922.558 642.995 926.62 653.684 922.797 662.93C921.485 665.757 919.831 668.403 917.874 670.807L907.908 684.138C906.015 686.94 903.737 689.449 901.145 691.586C897.416 694.362 892.78 695.5 888.215 696.185C876.087 697.995 863.743 696.967 851.519 697.799C830.524 699.23 810.019 706.152 788.977 705.92C776.884 705.785 764.946 703.29 753.129 700.795L700.827 689.788C691.721 687.88 681.433 685.092 677.143 676.641C675.219 672.837 674.861 668.434 674.634 664.153C674.012 652.363 674.634 639.253 682.616 630.753C690.12 622.778 701.986 620.259 710.948 614.364C721.917 607.136 725.538 609.472 737.105 614.902C759.671 625.362 784.499 629.66 809.171 627.377V627.377Z" fill="black"/>
<path d="M1019.2 610.609C1004.53 616.419 989.773 622.253 974.406 625.714C948.643 631.523 921.685 630.606 896.126 637.247C882.623 640.769 869.204 646.444 855.331 645.294C849.129 644.781 843.143 642.848 837.108 641.381C803.208 632.819 764.672 635.596 737.14 657.61C727.724 665.132 720.017 674.513 713.027 684.517C711.531 686.678 710.52 689.15 710.066 691.757C709.612 694.364 709.727 697.042 710.402 699.599C711.076 702.155 712.295 704.528 713.969 706.547C715.644 708.565 717.733 710.18 720.089 711.277C730.795 716.316 742.264 719.447 754.001 720.535C769.69 721.954 785.451 719.679 801.057 717.404C824.215 714.041 847.385 710.665 870.483 706.886C878.775 705.528 887.068 704.122 895.409 703.046C955.43 695.279 1016.54 704.721 1076.72 698.239C1082.8 697.579 1088.99 696.723 1094.52 694.069C1108.52 687.342 1115.46 669.608 1112.56 654.027C1109.67 638.445 1098.51 625.494 1085.08 617.544C1073.82 610.854 1061.68 608.151 1049.15 605.314C1037.51 602.537 1030.41 606.206 1019.2 610.609Z" fill="#AE6E79"/>
<path opacity="0.1" d="M1147.93 517.463C1154.55 526.343 1155.96 538.255 1155.25 549.372C1154.53 560.49 1151.95 571.485 1151.57 582.651C1151.04 597.963 1154.65 613.226 1154.04 628.49C1153.61 639.167 1151.14 649.636 1148.21 659.885C1144.75 671.981 1139.76 684.982 1128.85 690.791C1114.37 698.508 1083.99 694.166 1068.76 700.208C1070.14 691.366 1083.43 678.561 1084.82 669.718C1085.77 663.603 1086.74 657.317 1085.71 651.189C1084.4 643.374 1079.92 636.44 1074.6 630.667C1066.14 621.482 1055.1 614.572 1042.97 612.321C1030.84 610.071 1001.15 611.918 991.445 619.757C990.25 611.661 1012.48 603.858 1020.29 602.109C1024.19 601.216 1028.66 601.718 1031.77 599.186C1037.75 594.392 1033.41 584.84 1033.7 577.172C1033.93 571.056 1037.41 565.455 1038.12 559.34C1039.31 549.556 1033.08 539.588 1035.53 529.987C1036.43 526.44 1038.45 523.322 1039.85 519.946C1044.11 509.611 1042.24 497.822 1039.97 486.839C1038.56 479.941 1037.19 472.162 1040.94 466.28C1044.42 460.788 1054.29 480.344 1060.61 479.439C1081.48 476.443 1100.38 460.605 1117.24 473.569C1125.83 480.173 1126.95 487.022 1130.38 496.452C1133.71 505.429 1142.35 510.027 1147.93 517.463Z" fill="black"/>
<path d="M1151.52 517.463C1158.14 526.343 1159.55 538.255 1158.83 549.372C1158.11 560.49 1155.53 571.485 1155.15 582.651C1154.63 597.963 1158.23 613.227 1157.62 628.49C1157.19 639.167 1154.72 649.636 1151.79 659.885C1148.34 671.981 1143.35 684.982 1132.44 690.791C1117.95 698.508 1087.58 694.167 1072.34 700.208C1073.73 691.366 1087.02 678.561 1088.4 669.718C1089.36 663.603 1090.33 657.317 1089.3 651.189C1087.98 643.374 1083.5 636.44 1078.19 630.667C1069.73 621.482 1058.68 614.572 1046.56 612.321C1034.43 610.071 1004.73 611.918 995.03 619.758C993.835 611.661 1016.06 603.858 1023.88 602.109C1027.77 601.216 1032.24 601.718 1035.36 599.186C1041.33 594.392 1037 584.84 1037.28 577.172C1037.51 571.057 1041 565.455 1041.7 559.34C1042.9 549.556 1036.66 539.588 1039.11 529.987C1040.02 526.44 1042.04 523.322 1043.44 519.946C1047.69 509.612 1045.83 497.822 1043.56 486.839C1042.15 479.941 1040.77 472.162 1044.52 466.28C1048 460.788 1054.8 458.709 1061.12 457.792C1082.29 454.862 1103.73 460.525 1120.87 473.569C1129.46 480.173 1130.58 487.022 1134.01 496.452C1137.3 505.429 1145.94 510.027 1151.52 517.463Z" fill="#4C4981"/>
<path d="M360.869 459.516L425.837 705.272C426.634 708.283 428.309 710.974 430.638 712.986C432.967 714.998 435.84 716.237 438.874 716.536L731.297 745.289C733.68 745.524 736.084 745.172 738.307 744.26C740.529 743.349 742.506 741.906 744.072 740.052C745.638 738.198 746.747 735.987 747.306 733.604C747.865 731.221 747.858 728.736 747.285 726.357L676.139 429.919C675.293 426.395 673.253 423.293 670.382 421.164C667.512 419.034 663.997 418.015 660.462 418.288L374.168 440.205C371.97 440.379 369.837 441.049 367.92 442.164C366.004 443.28 364.352 444.815 363.082 446.659C361.811 448.504 360.954 450.612 360.572 452.835C360.189 455.057 360.291 457.339 360.869 459.516V459.516Z" fill="#9C9CA1"/>
<path d="M940.541 507.471C958.294 507.471 972.685 492.55 972.685 474.144C972.685 455.737 958.294 440.816 940.541 440.816C922.789 440.816 908.398 455.737 908.398 474.144C908.398 492.55 922.789 507.471 940.541 507.471Z" fill="white"/>
<path d="M966.937 413.347C966.937 413.347 973.713 433.967 953.721 442.639L951.164 447.213L963.687 459.859C963.687 459.859 979.126 431.032 977.453 420.795C977.453 420.795 975.063 410.399 966.937 413.347Z" fill="white"/>
<path d="M944.234 507.471C961.353 507.471 975.23 493.267 975.23 475.746C975.23 458.224 961.353 444.021 944.234 444.021C927.115 444.021 913.237 458.224 913.237 475.746C913.237 493.267 927.115 507.471 944.234 507.471Z" fill="#6C63FF"/>
<path d="M977.608 425.479L972.685 417.163L965.515 416.123C967.045 388.74 960.102 380.582 960.102 380.582L958.489 380.423L951.463 379.726L938.247 365.686V361.698C956.816 363.961 967.081 372.987 972.625 383.566C982.424 402.132 977.608 425.479 977.608 425.479Z" fill="#6C63FF"/>
<path opacity="0.1" d="M958.549 375.384V380.423L951.523 379.726L938.307 365.686C938.307 365.686 958.752 370.37 958.549 375.384Z" fill="black" stroke="#4C4981" stroke-miterlimit="10"/>
<path opacity="0.1" d="M977.608 425.479L972.685 417.163V383.615C982.424 402.132 977.608 425.479 977.608 425.479Z" fill="black" stroke="#4C4981" stroke-miterlimit="10"/>
<path d="M886.957 488.787C895.204 483.914 894.849 467.482 886.164 452.086C877.479 436.689 863.753 428.159 855.506 433.032C847.259 437.906 847.614 454.338 856.299 469.734C864.983 485.13 878.709 493.661 886.957 488.787Z" fill="white"/>
<path d="M875.884 458.22C884.571 473.618 895.23 483.903 886.985 488.796C878.74 493.688 854.722 491.242 846.034 475.832C837.347 460.421 845.234 439.141 853.479 434.249C861.724 429.356 867.185 442.785 875.884 458.22Z" fill="#6C63FF"/>
<path opacity="0.1" d="M953.232 347.291C953.232 396.494 920.335 443.91 872.263 443.91C849.176 443.91 827.034 434.523 810.709 417.814C794.384 401.105 785.212 378.443 785.212 354.813C785.212 331.183 794.384 308.52 810.709 291.811C827.034 275.102 849.176 265.715 872.263 265.715C920.335 265.764 953.232 298.077 953.232 347.291Z" fill="black"/>
<path d="M872.263 441.513C920.34 441.513 959.314 401.623 959.314 352.416C959.314 303.208 920.34 263.318 872.263 263.318C824.186 263.318 785.212 303.208 785.212 352.416C785.212 401.623 824.186 441.513 872.263 441.513Z" fill="#AE6E79"/>
<path d="M864.616 312.936C874.976 316.838 881.106 327.796 890.402 333.899C903.546 342.46 920.658 340.247 935.666 336.015C944.031 333.679 952.777 330.829 961.011 333.422C962.222 333.971 963.558 334.166 964.87 333.985C966.663 333.459 967.547 331.429 968.132 329.618C978.313 298.554 973.737 263.367 958.37 234.626C954.403 227.214 949.647 220.047 943.099 214.898C937.936 210.85 931.866 208.196 925.748 205.934C914.567 201.824 903.003 198.902 891.239 197.213C889.161 196.827 887.039 196.757 884.941 197.005C882.062 197.482 879.48 199.072 876.911 200.491C865.908 206.528 853.706 209.92 841.231 210.41C824.502 211.058 805.383 207.022 792.49 218.005C776.955 231.177 780.827 256.873 770.754 274.753C764.086 286.58 751.229 295.166 749.114 308.631C748.563 312.747 748.819 316.934 749.866 320.947C754.789 341.665 774.386 357.711 795.274 358.091C798.481 358.341 801.693 357.667 804.546 356.146C806.416 354.84 808.066 353.234 809.434 351.388C823.116 334.804 838.769 303.201 864.616 312.936Z" fill="#444053"/>
<path opacity="0.1" d="M968.132 320.605C967.547 322.415 966.663 324.445 964.87 324.971C963.558 325.152 962.222 324.957 961.011 324.408C952.778 321.816 943.983 324.665 935.678 327.001C920.658 331.233 903.511 333.495 890.414 324.885C881.106 318.77 874.988 307.763 864.616 303.923C838.769 294.138 823.116 325.79 809.398 342.375C808.03 344.22 806.38 345.827 804.511 347.132C801.658 348.654 798.446 349.327 795.238 349.077C774.422 348.698 754.813 332.652 749.831 311.933C749.556 310.71 749.317 309.487 749.138 308.264C749.138 308.374 749.138 308.472 749.078 308.582C748.527 312.698 748.783 316.885 749.831 320.898C754.754 341.616 774.363 357.663 795.238 358.042C798.446 358.292 801.658 357.618 804.511 356.097C806.38 354.791 808.03 353.185 809.398 351.339C823.116 334.755 838.769 303.152 864.616 312.887C874.988 316.789 881.106 327.747 890.414 333.85C903.558 342.411 920.658 340.198 935.678 335.966C944.043 333.63 952.778 330.78 961.011 333.373C962.222 333.922 963.558 334.117 964.87 333.936C966.663 333.41 967.547 331.38 968.132 329.57C972.239 316.859 974.053 303.49 973.486 290.115C973.134 300.488 971.331 310.755 968.132 320.605V320.605Z" fill="black"/>
</g>
<defs>
<clipPath id="clip0">
<rect width="1367" height="755" fill="white"/>
</clipPath>
</defs>
</svg>
