<svg width="1355" height="1337" viewBox="0 0 1355 1337" fill="none" xmlns="http://www.w3.org/2000/svg">
<path d="M262.172 1299.39C73.8652 1248.99 -6.54629 1189.5 0.414643 998C-4.10063 859.825 64.4146 748 108.415 672C152.415 596 196.415 408 118.415 396C40.4146 384 118.686 199.543 254.415 148C408.128 50.2738 494.683 11.436 650.415 0L1142.41 24C1163.38 44.7315 1223.82 124.03 1354.41 346C1361.99 371.33 1284.92 749.412 1240.75 1030.89C1308.98 1055.82 1335.94 1112.6 1292.41 1216C1187.42 1465.44 1200.29 1288.68 1240.75 1030.89C1009.99 946.589 307.2 1226.54 262.172 1299.39C280.552 1304.31 299.96 1309.14 320.415 1314C269.879 1320.02 253.323 1313.7 262.172 1299.39Z" fill="url(#paint0_linear)"/>
<defs>
<linearGradient id="paint0_linear" x1="1166.41" y1="116" x2="0.413714" y2="1028" gradientUnits="userSpaceOnUse">
<stop stop-color="#2BFF09"/>
<stop offset="1" stop-color="#BAE313"/>
</linearGradient>
</defs>
</svg>
