<svg width="1276" height="777" viewBox="0 0 1276 777" fill="none" xmlns="http://www.w3.org/2000/svg">
<g clip-path="url(#clip0)">
<path d="M189.69 509.536C200.47 499.8 212.858 492.553 226.142 488.214C263.316 476.272 301.772 487.831 338.962 499.01C359.04 505.045 379.8 511.285 400.276 513.855C433.085 517.974 463.666 512.226 488.711 497.232C516.86 480.382 537.134 451.382 542.948 419.664C543.682 415.65 544.171 411.584 544.412 407.495C541.638 409.416 538.855 411.308 536.062 413.17C506.684 432.759 465.392 451.075 435.52 427.076C424.053 417.865 416.613 402.473 415.106 384.849C413.492 365.965 418.903 347.135 429.58 334.483C431.32 332.422 433.186 330.5 435.164 328.729C456.804 309.333 490.966 308.288 514.928 327.457C535.221 343.692 547.243 373.026 546.857 402.778C564.208 390.561 580.988 377.35 597.13 363.197L598.531 365.212C581.926 379.77 564.65 393.336 546.773 405.852C546.574 410.667 546.041 415.457 545.178 420.179C539.229 452.633 518.519 482.281 489.783 499.487C464.33 514.726 433.291 520.573 400.023 516.396C379.377 513.804 358.533 507.538 338.373 501.479C299.784 489.88 263.336 478.924 226.768 490.671C190.012 502.478 160.322 538.698 152.885 580.8C145.444 622.903 160.574 669.106 190.532 695.771L189.117 697.774C158.508 670.53 143.05 623.321 150.651 580.302C155.563 552.5 169.974 527.206 189.69 509.536ZM544.548 404.395C545.409 374.898 533.681 345.598 513.607 329.539C488.353 309.335 451.398 312.345 431.233 336.24C421.002 348.365 415.82 366.445 417.372 384.605C418.816 401.493 425.913 416.216 436.844 424.998C465.718 448.193 506.104 430.173 534.9 410.972C538.129 408.819 541.345 406.627 544.548 404.395Z" fill="#3F3D56"/>
<path d="M317.008 727.156C492.087 727.156 634.016 719.718 634.016 710.542C634.016 701.366 492.087 693.927 317.008 693.927C141.929 693.927 0 701.366 0 710.542C0 719.718 141.929 727.156 317.008 727.156Z" fill="#3F3D56"/>
<path d="M305.056 777C367.292 777 417.745 769.561 417.745 760.385C417.745 751.209 367.292 743.771 305.056 743.771C242.82 743.771 192.368 751.209 192.368 760.385C192.368 769.561 242.82 777 305.056 777Z" fill="#3F3D56"/>
<path d="M211.149 362.276V372.5C211.149 372.5 200.878 425.959 216.84 423.622C243.021 419.788 223.67 376.334 223.67 376.334V367.388L211.149 362.276Z" fill="#FFB8B8"/>
<path d="M338.635 649.835L348.88 681.786L373.921 671.562L362.539 642.167L338.635 649.835Z" fill="#FFB8B8"/>
<path d="M276.03 681.786L269.201 709.903L295.381 718.849L296.519 689.454L276.03 681.786Z" fill="#FFB8B8"/>
<path d="M253.265 359.72L250.988 373.778C250.988 373.778 249.85 384.003 250.988 390.393C252.127 396.783 334.082 661.337 334.082 661.337L369.368 646.001L323.838 478.578L318.146 349.495L253.265 359.72Z" fill="#2F2E41"/>
<path d="M297.657 357.164L293.104 546.314C293.104 546.314 282.86 559.094 285.137 568.04C287.413 576.987 279.445 651.113 279.445 651.113L272.616 688.176L302.211 698.401C302.211 698.401 307.902 665.172 312.455 661.337C317.008 657.503 343.188 542.48 343.188 534.811C343.188 527.143 362.539 357.164 362.539 357.164L314.732 335.437L297.657 357.164Z" fill="#2F2E41"/>
<path d="M351.156 661.337C351.156 661.337 338.635 646.001 331.806 661.337C326.689 672.362 320.987 683.031 314.732 693.288C314.732 693.288 278.307 717.571 314.732 723.961C314.732 723.961 335.22 725.239 345.465 717.571C355.709 709.903 383.028 698.401 383.028 695.845C383.028 693.288 376.198 655.714 369.368 659.804C362.539 663.894 351.156 661.337 351.156 661.337Z" fill="#2F2E41"/>
<path d="M288.551 703.513C288.551 703.513 278.307 686.898 269.201 698.401C260.095 709.903 248.712 743.132 248.712 743.132C248.712 743.132 228.223 777.639 260.095 776.361C291.966 775.083 294.243 762.303 294.243 762.303C294.243 762.303 298.796 729.074 298.796 727.796C298.796 726.517 296.519 713.38 296.519 713.38L288.551 703.513Z" fill="#2F2E41"/>
<path d="M281.153 94.5264C298.755 94.5264 313.024 78.5049 313.024 58.7413C313.024 38.9777 298.755 22.9561 281.153 22.9561C263.55 22.9561 249.281 38.9777 249.281 58.7413C249.281 78.5049 263.55 94.5264 281.153 94.5264Z" fill="#FFB8B8"/>
<path d="M264.648 81.107L269.201 122.004L282.86 160.345L312.455 120.726V101.556C312.455 101.556 303.349 86.2192 305.625 73.4388L264.648 81.107Z" fill="#FFB8B8"/>
<path d="M280.583 130.951L264.648 123.282L247.574 349.496L250.988 363.554C250.988 363.554 260.095 369.944 288.551 364.832C317.008 359.72 363.677 363.554 363.677 363.554L367.092 247.252L311.317 110.502L280.583 130.951Z" fill="#D0CDE1"/>
<path d="M252.127 354.608C252.127 354.608 273.754 143.731 272.616 139.897C271.477 136.063 252.127 125.681 252.127 125.681C252.127 125.681 219.117 150.121 220.255 159.067C221.393 168.014 241.882 357.164 241.882 357.164L252.127 354.608Z" fill="#575A89"/>
<path d="M338.635 339.271C338.635 339.271 304.487 189.74 303.349 156.511C302.211 123.282 302.211 119.448 302.211 119.448C302.211 119.448 354.571 98.9996 372.783 119.448L376.198 226.804C376.198 226.804 381.889 272.813 379.613 286.871C378.045 296.026 375.759 305.007 372.783 313.71C372.783 313.71 385.304 327.769 373.922 331.603C362.539 335.437 354.571 329.047 350.018 335.437C345.465 341.827 338.635 339.271 338.635 339.271Z" fill="#575A89"/>
<path d="M228.223 151.399C228.223 151.399 214.564 151.399 215.702 169.292C216.84 187.184 215.702 270.257 215.702 270.257C215.702 270.257 205.458 340.549 208.872 345.661C212.287 350.773 207.734 367.388 207.734 367.388L228.223 372.5C228.223 372.5 230.5 354.608 235.053 353.33C239.606 352.052 246.435 314.988 246.435 314.988L228.223 151.399Z" fill="#575A89"/>
<path d="M381.889 308.598L376.662 319.269C376.662 319.269 340.811 351.324 358.505 363.19C376.198 375.056 393.272 331.603 393.272 331.603L398.963 320.101L381.889 308.598Z" fill="#FFB8B8"/>
<path d="M356.848 116.892L372.783 119.448C372.783 119.448 390.996 133.507 392.134 141.175C393.272 148.843 429.697 219.135 429.697 219.135C431.845 224.349 433.007 230.006 433.112 235.75C433.112 244.696 420.591 312.432 413.761 313.71C406.931 314.988 402.378 327.769 402.378 327.769L378.475 311.154C378.55 307.29 378.931 303.441 379.613 299.652C380.751 293.262 385.304 280.481 385.304 280.481L392.134 253.642C391.074 252.75 390.213 251.592 389.62 250.261C389.028 248.93 388.719 247.462 388.719 245.974C388.719 240.862 369.368 214.023 369.368 214.023L356.848 116.892Z" fill="#575A89"/>
<path d="M277.036 143.999C277.036 143.999 247.574 134.785 249.85 128.395C252.127 122.004 254.403 120.726 254.403 120.726C254.403 120.726 257.818 110.502 261.233 110.502C264.648 110.502 267.571 107.363 267.571 107.363L280.583 130.951L277.036 143.999Z" fill="#D0CDE1"/>
<path d="M309.057 94.5264C309.057 94.5264 320.423 91.3313 324.976 95.1655C329.529 98.9996 332.944 98.9996 334.082 101.556C335.22 104.112 350.018 106.668 345.465 110.502C340.912 114.336 280.583 130.951 280.583 130.951L309.04 107.946L309.057 94.5264Z" fill="#D0CDE1"/>
<path d="M312.61 20.6655C307.524 11.3934 299.564 4.56096 290.262 1.48305L283.429 7.62038L286.086 0.461902C283.852 0.0792605 281.591 -0.0674639 279.332 0.0236676L273.185 8.89842L275.729 0.327655C270.395 1.07198 265.255 3.04925 260.635 6.13481C256.015 9.22036 252.015 13.3472 248.886 18.2552C241.062 30.9228 241.585 48.5315 249.281 61.2981C251.394 54.0088 252.114 47.1768 254.226 39.8874C255.887 40.1415 257.569 40.1507 259.232 39.9148L261.802 33.1812L262.52 39.63C270.486 38.8506 282.302 37.1398 289.855 35.5722L289.12 30.6251L293.514 34.7361C295.828 34.138 297.202 33.5957 297.088 33.1812C302.705 43.3482 308.271 49.842 313.887 60.009C316.02 45.6681 319.784 33.7476 312.61 20.6655Z" fill="#2F2E41"/>
<path d="M310.748 40.7413C312.005 40.7413 313.024 38.4525 313.024 35.6291C313.024 32.8058 312.005 30.517 310.748 30.517C309.49 30.517 308.471 32.8058 308.471 35.6291C308.471 38.4525 309.49 40.7413 310.748 40.7413Z" fill="#FFB8B8"/>
<path d="M118.63 710.199L117.409 709.684C117.14 709.571 90.422 698.077 77.9061 672.016C65.3896 645.953 71.5183 614.574 71.5817 614.261L71.8701 612.832L73.0912 613.346C73.3597 613.459 100.077 624.953 112.594 651.014C125.11 677.077 118.982 708.456 118.918 708.77L118.63 710.199ZM79.9103 670.803C90.4921 692.838 111.606 704.133 116.955 706.711C117.972 700.274 121.162 674.241 110.59 652.227C100.018 630.216 78.8965 618.904 73.5448 616.319C72.5271 622.76 69.3385 648.79 79.9103 670.803Z" fill="#3F3D56"/>
<path d="M87.4712 662.874C109.964 678.068 118.627 708.248 118.627 708.248C118.627 708.248 90.8213 713.793 68.3285 698.599C45.8357 683.405 37.1729 653.225 37.1729 653.225C37.1729 653.225 64.9783 647.68 87.4712 662.874Z" fill="#6C63FF"/>
<path d="M577.103 379.322H1097.5C1196.08 379.322 1276 316.234 1276 205.547V205.546C1276 94.8586 1196.08 48.7241 1097.5 48.7241H934.101C736.936 48.7241 577.103 157.947 577.103 379.322V379.322Z" fill="#3F3D56"/>
<path d="M1068.45 352.511H635.347V351.233C635.347 264.294 665.515 192.667 722.591 144.096C775.297 99.2435 847.992 75.5356 932.817 75.5356H1068.45C1111.71 75.5356 1148.16 86.208 1173.87 106.398C1202.99 129.268 1217.76 163.111 1217.76 206.987C1217.76 251.085 1202.6 288.281 1173.94 314.554C1147.24 339.032 1109.77 352.511 1068.45 352.511ZM637.625 349.955H1068.45C1156.39 349.955 1215.48 292.5 1215.48 206.987C1215.48 125.072 1161.89 78.0916 1068.45 78.0916H932.817C790.416 78.0916 638.275 149.551 637.625 349.955Z" fill="#6C63FF"/>
<path d="M859.393 160.985H797.927V177.599H859.393V160.985Z" fill="#6C63FF"/>
<path d="M1072.25 160.985H1050.62V177.599H1072.25V160.985Z" fill="#6C63FF"/>
<path d="M1115.5 160.985H1093.88V177.599H1115.5V160.985Z" fill="#6C63FF"/>
<path d="M1027.86 160.985H881.021V177.599H1027.86V160.985Z" fill="#6C63FF"/>
<path d="M781.991 268.34H720.525V284.954H781.991V268.34Z" fill="#6C63FF"/>
<path d="M994.847 268.34H973.22V284.954H994.847V268.34Z" fill="#6C63FF"/>
<path d="M1038.1 268.34H1016.47V284.954H1038.1V268.34Z" fill="#6C63FF"/>
<path d="M950.455 268.34H803.618V284.954H950.455V268.34Z" fill="#6C63FF"/>
<path d="M1035.83 198.048H974.359V214.662H1035.83V198.048Z" fill="#6C63FF"/>
<path d="M1118.92 198.048H1057.45V214.662H1118.92V198.048Z" fill="#6C63FF"/>
<path d="M1162.17 198.048H1140.55V214.662H1162.17V198.048Z" fill="#6C63FF"/>
<path d="M742.152 198.048H720.525V214.662H742.152V198.048Z" fill="#6C63FF"/>
<path d="M785.406 198.048H763.779V214.662H785.406V198.048Z" fill="#6C63FF"/>
<path d="M953.87 198.048H807.033V214.662H953.87V198.048Z" fill="#6C63FF"/>
<path d="M846.872 250.447H908.339V233.833H846.872V250.447Z" fill="#6C63FF"/>
<path d="M763.779 250.447H825.245V233.833H763.779V250.447Z" fill="#6C63FF"/>
<path d="M720.525 250.447H742.152V233.833H720.525V250.447Z" fill="#6C63FF"/>
<path d="M1140.55 250.447H1162.17V233.833H1140.55V250.447Z" fill="#6C63FF"/>
<path d="M1097.29 250.447H1118.92V233.833H1097.29V250.447Z" fill="#6C63FF"/>
<path d="M928.828 250.447L1075.66 250.447V233.833L928.828 233.833V250.447Z" fill="#6C63FF"/>
<path d="M194.644 686.259H173.017V705.43H194.644V686.259Z" fill="#6C63FF"/>
<path d="M373.352 742.493H351.725V761.664H373.352V742.493Z" fill="#6C63FF"/>
</g>
<defs>
<clipPath id="clip0">
<rect width="1276" height="777" fill="white"/>
</clipPath>
</defs>
</svg>
