<svg width="1920" height="1080" viewBox="0 0 1920 1080" fill="none" xmlns="http://www.w3.org/2000/svg">
<g clip-path="url(#clip0)">
<rect width="1920" height="1080" fill="white"/>
<path d="M984.758 1177.39C796.451 1126.99 716.039 1067.5 723 876C718.485 737.825 787 626 831 550C875 474 919 286 841 274C763 262 841.271 77.5427 977 26C1130.71 -71.7262 1217.27 -110.564 1373 -122L1865 -98C1885.96 -77.2685 1946.41 2.02954 2077 224C2084.57 249.33 2007.51 627.412 1963.33 908.891C2031.57 933.819 2058.53 990.598 2015 1094C1910 1343.44 1922.87 1166.68 1963.33 908.891C1732.57 824.589 1029.79 1104.54 984.758 1177.39C1003.14 1182.31 1022.55 1187.14 1043 1192C992.464 1198.02 975.909 1191.7 984.758 1177.39Z" fill="url(#paint0_linear)"/>
<g clip-path="url(#clip1)">
<path d="M833.69 812.536C844.47 802.8 856.858 795.553 870.142 791.214C907.316 779.272 945.772 790.831 982.962 802.01C1003.04 808.045 1023.8 814.285 1044.28 816.855C1077.09 820.974 1107.67 815.226 1132.71 800.232C1160.86 783.382 1181.13 754.382 1186.95 722.664C1187.68 718.65 1188.17 714.584 1188.41 710.495C1185.64 712.416 1182.86 714.308 1180.06 716.17C1150.68 735.759 1109.39 754.075 1079.52 730.076C1068.05 720.865 1060.61 705.473 1059.11 687.849C1057.49 668.965 1062.9 650.135 1073.58 637.483C1075.32 635.422 1077.19 633.5 1079.16 631.729C1100.8 612.333 1134.97 611.288 1158.93 630.457C1179.22 646.692 1191.24 676.026 1190.86 705.778C1208.21 693.561 1224.99 680.35 1241.13 666.197L1242.53 668.212C1225.93 682.77 1208.65 696.336 1190.77 708.852C1190.57 713.667 1190.04 718.457 1189.18 723.179C1183.23 755.633 1162.52 785.281 1133.78 802.487C1108.33 817.726 1077.29 823.573 1044.02 819.396C1023.38 816.804 1002.53 810.538 982.373 804.479C943.784 792.88 907.336 781.924 870.768 793.671C834.012 805.478 804.322 841.698 796.885 883.8C789.444 925.903 804.574 972.106 834.532 998.771L833.117 1000.77C802.508 973.53 787.05 926.321 794.651 883.302C799.563 855.5 813.974 830.206 833.69 812.536ZM1188.55 707.395C1189.41 677.898 1177.68 648.598 1157.61 632.539C1132.35 612.335 1095.4 615.345 1075.23 639.24C1065 651.365 1059.82 669.445 1061.37 687.605C1062.82 704.493 1069.91 719.216 1080.84 727.998C1109.72 751.193 1150.1 733.173 1178.9 713.972C1182.13 711.819 1185.34 709.627 1188.55 707.395V707.395Z" fill="#3F3D56"/>
<path d="M961.008 1030.16C1136.09 1030.16 1278.02 1022.72 1278.02 1013.54C1278.02 1004.37 1136.09 996.927 961.008 996.927C785.929 996.927 644 1004.37 644 1013.54C644 1022.72 785.929 1030.16 961.008 1030.16Z" fill="#3F3D56"/>
<path d="M949.056 1080C1011.29 1080 1061.74 1072.56 1061.74 1063.39C1061.74 1054.21 1011.29 1046.77 949.056 1046.77C886.82 1046.77 836.368 1054.21 836.368 1063.39C836.368 1072.56 886.82 1080 949.056 1080Z" fill="#3F3D56"/>
<path d="M855.149 665.276V675.5C855.149 675.5 844.878 728.959 860.84 726.622C887.021 722.788 867.67 679.334 867.67 679.334V670.388L855.149 665.276Z" fill="#FFB8B8"/>
<path d="M982.635 952.835L992.88 984.786L1017.92 974.562L1006.54 945.167L982.635 952.835Z" fill="#FFB8B8"/>
<path d="M920.03 984.786L913.201 1012.9L939.381 1021.85L940.519 992.454L920.03 984.786Z" fill="#FFB8B8"/>
<path d="M897.265 662.72L894.988 676.778C894.988 676.778 893.85 687.003 894.988 693.393C896.127 699.783 978.082 964.337 978.082 964.337L1013.37 949.001L967.838 781.578L962.146 652.495L897.265 662.72Z" fill="#2F2E41"/>
<path d="M941.657 660.164L937.104 849.314C937.104 849.314 926.86 862.094 929.137 871.04C931.413 879.987 923.445 954.113 923.445 954.113L916.616 991.176L946.211 1001.4C946.211 1001.4 951.902 968.172 956.455 964.337C961.008 960.503 987.188 845.48 987.188 837.811C987.188 830.143 1006.54 660.164 1006.54 660.164L958.732 638.437L941.657 660.164Z" fill="#2F2E41"/>
<path d="M995.156 964.337C995.156 964.337 982.635 949.001 975.806 964.337C970.689 975.362 964.987 986.031 958.732 996.288C958.732 996.288 922.307 1020.57 958.732 1026.96C958.732 1026.96 979.22 1028.24 989.465 1020.57C999.709 1012.9 1027.03 1001.4 1027.03 998.845C1027.03 996.288 1020.2 958.714 1013.37 962.804C1006.54 966.894 995.156 964.337 995.156 964.337Z" fill="#2F2E41"/>
<path d="M932.551 1006.51C932.551 1006.51 922.307 989.898 913.201 1001.4C904.095 1012.9 892.712 1046.13 892.712 1046.13C892.712 1046.13 872.223 1080.64 904.095 1079.36C935.966 1078.08 938.243 1065.3 938.243 1065.3C938.243 1065.3 942.796 1032.07 942.796 1030.8C942.796 1029.52 940.519 1016.38 940.519 1016.38L932.551 1006.51Z" fill="#2F2E41"/>
<path d="M925.153 397.526C942.755 397.526 957.024 381.505 957.024 361.741C957.024 341.978 942.755 325.956 925.153 325.956C907.55 325.956 893.281 341.978 893.281 361.741C893.281 381.505 907.55 397.526 925.153 397.526Z" fill="#FFB8B8"/>
<path d="M908.648 384.107L913.201 425.004L926.86 463.345L956.455 423.726V404.556C956.455 404.556 947.349 389.219 949.625 376.439L908.648 384.107Z" fill="#FFB8B8"/>
<path d="M924.583 433.951L908.648 426.282L891.574 652.496L894.988 666.554C894.988 666.554 904.095 672.944 932.551 667.832C961.008 662.72 1007.68 666.554 1007.68 666.554L1011.09 550.252L955.317 413.502L924.583 433.951Z" fill="#D0CDE1"/>
<path d="M896.127 657.608C896.127 657.608 917.754 446.731 916.616 442.897C915.477 439.063 896.127 428.681 896.127 428.681C896.127 428.681 863.117 453.121 864.255 462.067C865.393 471.014 885.882 660.164 885.882 660.164L896.127 657.608Z" fill="#575A89"/>
<path d="M982.635 642.271C982.635 642.271 948.487 492.74 947.349 459.511C946.211 426.282 946.211 422.448 946.211 422.448C946.211 422.448 998.571 402 1016.78 422.448L1020.2 529.804C1020.2 529.804 1025.89 575.813 1023.61 589.871C1022.04 599.026 1019.76 608.007 1016.78 616.71C1016.78 616.71 1029.3 630.769 1017.92 634.603C1006.54 638.437 998.571 632.047 994.018 638.437C989.465 644.827 982.635 642.271 982.635 642.271Z" fill="#575A89"/>
<path d="M872.223 454.399C872.223 454.399 858.564 454.399 859.702 472.292C860.84 490.184 859.702 573.257 859.702 573.257C859.702 573.257 849.458 643.549 852.872 648.661C856.287 653.774 851.734 670.388 851.734 670.388L872.223 675.5C872.223 675.5 874.5 657.608 879.053 656.33C883.606 655.052 890.435 617.988 890.435 617.988L872.223 454.399Z" fill="#575A89"/>
<path d="M1025.89 611.598L1020.66 622.269C1020.66 622.269 984.811 654.324 1002.5 666.19C1020.2 678.056 1037.27 634.603 1037.27 634.603L1042.96 623.101L1025.89 611.598Z" fill="#FFB8B8"/>
<path d="M1000.85 419.892L1016.78 422.448C1016.78 422.448 1035 436.507 1036.13 444.175C1037.27 451.843 1073.7 522.135 1073.7 522.135C1075.84 527.349 1077.01 533.006 1077.11 538.75C1077.11 547.696 1064.59 615.432 1057.76 616.71C1050.93 617.988 1046.38 630.769 1046.38 630.769L1022.47 614.154C1022.55 610.29 1022.93 606.441 1023.61 602.652C1024.75 596.262 1029.3 583.481 1029.3 583.481L1036.13 556.642C1035.07 555.75 1034.21 554.592 1033.62 553.261C1033.03 551.93 1032.72 550.462 1032.72 548.974C1032.72 543.862 1013.37 517.023 1013.37 517.023L1000.85 419.892Z" fill="#575A89"/>
<path d="M921.036 446.999C921.036 446.999 891.574 437.785 893.85 431.395C896.127 425.004 898.403 423.726 898.403 423.726C898.403 423.726 901.818 413.502 905.233 413.502C908.648 413.502 911.571 410.363 911.571 410.363L924.583 433.951L921.036 446.999Z" fill="#D0CDE1"/>
<path d="M953.057 397.526C953.057 397.526 964.423 394.331 968.976 398.165C973.529 402 976.944 402 978.082 404.556C979.22 407.112 994.018 409.668 989.465 413.502C984.912 417.336 924.583 433.951 924.583 433.951L953.04 410.946L953.057 397.526Z" fill="#D0CDE1"/>
<path d="M956.61 323.665C951.524 314.393 943.564 307.561 934.262 304.483L927.429 310.62L930.086 303.462C927.852 303.079 925.591 302.933 923.332 303.024L917.185 311.898L919.729 303.328C914.395 304.072 909.255 306.049 904.635 309.135C900.015 312.22 896.015 316.347 892.886 321.255C885.062 333.923 885.585 351.531 893.281 364.298C895.394 357.009 896.114 350.177 898.226 342.887C899.887 343.142 901.569 343.151 903.232 342.915L905.802 336.181L906.52 342.63C914.486 341.851 926.302 340.14 933.855 338.572L933.12 333.625L937.514 337.736C939.828 337.138 941.202 336.596 941.088 336.181C946.705 346.348 952.271 352.842 957.887 363.009C960.02 348.668 963.784 336.748 956.61 323.665Z" fill="#2F2E41"/>
<path d="M954.748 343.741C956.005 343.741 957.024 341.453 957.024 338.629C957.024 335.806 956.005 333.517 954.748 333.517C953.49 333.517 952.471 335.806 952.471 338.629C952.471 341.453 953.49 343.741 954.748 343.741Z" fill="#FFB8B8"/>
<path d="M762.63 1013.2L761.409 1012.68C761.14 1012.57 734.422 1001.08 721.906 975.016C709.39 948.953 715.518 917.574 715.582 917.261L715.87 915.832L717.091 916.346C717.36 916.459 744.077 927.953 756.594 954.014C769.11 980.077 762.982 1011.46 762.918 1011.77L762.63 1013.2ZM723.91 973.803C734.492 995.838 755.606 1007.13 760.955 1009.71C761.972 1003.27 765.162 977.241 754.59 955.227C744.018 933.216 722.897 921.904 717.545 919.319C716.527 925.76 713.338 951.79 723.91 973.803V973.803Z" fill="#3F3D56"/>
<path d="M731.471 965.874C753.964 981.068 762.627 1011.25 762.627 1011.25C762.627 1011.25 734.821 1016.79 712.329 1001.6C689.836 986.405 681.173 956.225 681.173 956.225C681.173 956.225 708.978 950.68 731.471 965.874Z" fill="#6C63FF"/>
<path d="M1221.1 682.322H1741.5C1840.08 682.322 1920 619.234 1920 508.547V508.546C1920 397.859 1840.08 351.724 1741.5 351.724H1578.1C1380.94 351.724 1221.1 460.947 1221.1 682.322V682.322Z" fill="#3F3D56"/>
<path d="M1712.45 655.511H1279.35V654.233C1279.35 567.294 1309.52 495.667 1366.59 447.096C1419.3 402.244 1491.99 378.536 1576.82 378.536H1712.45C1755.71 378.536 1792.16 389.208 1817.87 409.398C1846.99 432.268 1861.76 466.111 1861.76 509.987C1861.76 554.085 1846.6 591.281 1817.94 617.554C1791.24 642.032 1753.77 655.511 1712.45 655.511ZM1281.63 652.955H1712.45C1800.39 652.955 1859.48 595.5 1859.48 509.987C1859.48 428.072 1805.89 381.092 1712.45 381.092H1576.82C1434.42 381.092 1282.27 452.551 1281.63 652.955V652.955Z" fill="#6C63FF"/>
<path d="M1503.39 463.985H1441.93V480.599H1503.39V463.985Z" fill="#6C63FF"/>
<path d="M1716.25 463.985H1694.62V480.599H1716.25V463.985Z" fill="#6C63FF"/>
<path d="M1759.5 463.985H1737.88V480.599H1759.5V463.985Z" fill="#6C63FF"/>
<path d="M1671.86 463.985H1525.02V480.599H1671.86V463.985Z" fill="#6C63FF"/>
<path d="M1425.99 571.34H1364.52V587.954H1425.99V571.34Z" fill="#6C63FF"/>
<path d="M1638.85 571.34H1617.22V587.954H1638.85V571.34Z" fill="#6C63FF"/>
<path d="M1682.1 571.34H1660.47V587.954H1682.1V571.34Z" fill="#6C63FF"/>
<path d="M1594.45 571.34H1447.62V587.954H1594.45V571.34Z" fill="#6C63FF"/>
<path d="M1679.83 501.048H1618.36V517.662H1679.83V501.048Z" fill="#6C63FF"/>
<path d="M1762.92 501.048H1701.45V517.662H1762.92V501.048Z" fill="#6C63FF"/>
<path d="M1806.17 501.048H1784.55V517.662H1806.17V501.048Z" fill="#6C63FF"/>
<path d="M1386.15 501.048H1364.52V517.662H1386.15V501.048Z" fill="#6C63FF"/>
<path d="M1429.41 501.048H1407.78V517.662H1429.41V501.048Z" fill="#6C63FF"/>
<path d="M1597.87 501.048H1451.03V517.662H1597.87V501.048Z" fill="#6C63FF"/>
<path d="M1490.87 553.447H1552.34V536.833H1490.87V553.447Z" fill="#6C63FF"/>
<path d="M1407.78 553.447H1469.25V536.833H1407.78V553.447Z" fill="#6C63FF"/>
<path d="M1364.52 553.447H1386.15V536.833H1364.52V553.447Z" fill="#6C63FF"/>
<path d="M1784.55 553.447H1806.17V536.833H1784.55V553.447Z" fill="#6C63FF"/>
<path d="M1741.29 553.447H1762.92V536.833H1741.29V553.447Z" fill="#6C63FF"/>
<path d="M1572.83 553.447H1719.66V536.833H1572.83V553.447Z" fill="#6C63FF"/>
<path d="M838.644 989.259H817.017V1008.43H838.644V989.259Z" fill="#6C63FF"/>
<path d="M1017.35 1045.49H995.725V1064.66H1017.35V1045.49Z" fill="#6C63FF"/>
</g>
</g>
<defs>
<linearGradient id="paint0_linear" x1="1889" y1="-6.00044" x2="722.999" y2="905.999" gradientUnits="userSpaceOnUse">
<stop stop-color="#2BFF09"/>
<stop offset="1" stop-color="#BAE313"/>
</linearGradient>
<clipPath id="clip0">
<rect width="1920" height="1080" fill="white"/>
</clipPath>
<clipPath id="clip1">
<rect width="1276" height="777" fill="white" transform="translate(644 303)"/>
</clipPath>
</defs>
</svg>
